REM DIRINDEX 1\4,1\2\5,1\2\6,1\3\7,1\3\8
REM DIRNAME folder01,folder02,folder03,folder04,folder05,folder06,folder07,folder08
TITLE ""
FILE "008_Day04_Check3_Sentences.mp3" MP3
  TRACK 01 AUDIO
    TITLE "0:"
    INDEX 01 00:00:00
  TRACK 02 AUDIO
    TITLE "4:cjc124_0232"
    INDEX 01 00:00:25
  TRACK 03 AUDIO
    TITLE "0:"
    INDEX 01 00:01:54
  TRACK 04 AUDIO
    TITLE "7:cjc124_0233"
    INDEX 01 00:02:20
  TRACK 05 AUDIO
    TITLE "0:"
    INDEX 01 00:05:10
  TRACK 06 AUDIO
    TITLE "8:cjc124_0234"
    INDEX 01 00:05:24
  TRACK 07 AUDIO
    TITLE "0:"
    INDEX 01 00:07:39
  TRACK 08 AUDIO
    TITLE "7:cjc124_0235"
    INDEX 01 00:07:74
  TRACK 09 AUDIO
    TITLE "0:"
    INDEX 01 00:12:38
  TRACK 10 AUDIO
    TITLE "8:cjc124_0236"
    INDEX 01 00:12:61
  TRACK 11 AUDIO
    TITLE "0:"
    INDEX 01 00:17:18
  TRACK 12 AUDIO
    TITLE "7:cjc124_0237"
    INDEX 01 00:17:55
  TRACK 13 AUDIO
    TITLE "0:"
    INDEX 01 00:20:06
  TRACK 14 AUDIO
    TITLE "8:cjc124_0238"
    INDEX 01 00:20:20
  TRACK 15 AUDIO
    TITLE "0:"
    INDEX 01 00:23:24
  TRACK 16 AUDIO
    TITLE "7:cjc124_0239"
    INDEX 01 00:23:61
  TRACK 17 AUDIO
    TITLE "0:"
    INDEX 01 00:26:34
  TRACK 18 AUDIO
    TITLE "8:cjc124_0240"
    INDEX 01 00:26:52
  TRACK 19 AUDIO
    TITLE "0:"
    INDEX 01 00:29:09
  TRACK 20 AUDIO
    TITLE "7:cjc124_0241"
    INDEX 01 00:29:46
  TRACK 21 AUDIO
    TITLE "0:"
    INDEX 01 00:32:33
  TRACK 22 AUDIO
    TITLE "8:cjc124_0242"
    INDEX 01 00:32:58
  TRACK 23 AUDIO
    TITLE "0:"
    INDEX 01 00:35:51
  TRACK 24 AUDIO
    TITLE "7:cjc124_0243"
    INDEX 01 00:36:13
  TRACK 25 AUDIO
    TITLE "0:"
    INDEX 01 00:38:63
  TRACK 26 AUDIO
    TITLE "8:cjc124_0244"
    INDEX 01 00:39:15
  TRACK 27 AUDIO
    TITLE "0:"
    INDEX 01 00:41:32
  TRACK 28 AUDIO
    TITLE "7:cjc124_0245"
    INDEX 01 00:41:73
  TRACK 29 AUDIO
    TITLE "0:"
    INDEX 01 00:45:04
  TRACK 30 AUDIO
    TITLE "8:cjc124_0246"
    INDEX 01 00:45:18
  TRACK 31 AUDIO
    TITLE "0:"
    INDEX 01 00:47:46
  TRACK 32 AUDIO
    TITLE "7:cjc124_0247"
    INDEX 01 00:48:06
  TRACK 33 AUDIO
    TITLE "0:"
    INDEX 01 00:51:38
  TRACK 34 AUDIO
    TITLE "8:cjc124_0248"
    INDEX 01 00:51:54
  TRACK 35 AUDIO
    TITLE "0:"
    INDEX 01 00:55:03
  TRACK 36 AUDIO
    TITLE "7:cjc124_0249"
    INDEX 01 00:55:38
  TRACK 37 AUDIO
    TITLE "0:"
    INDEX 01 00:57:50
  TRACK 38 AUDIO
    TITLE "8:cjc124_0250"
    INDEX 01 00:57:64
  TRACK 39 AUDIO
    TITLE "0:"
    INDEX 01 01:00:00
  TRACK 40 AUDIO
    TITLE "7:cjc124_0251"
    INDEX 01 01:00:45
  TRACK 41 AUDIO
    TITLE "0:"
    INDEX 01 01:02:30
  TRACK 42 AUDIO
    TITLE "8:cjc124_0252"
    INDEX 01 01:02:44
  TRACK 43 AUDIO
    TITLE "0:"
    INDEX 01 01:04:56
  TRACK 44 AUDIO
    TITLE "7:cjc124_0253"
    INDEX 01 01:05:19
  TRACK 45 AUDIO
    TITLE "0:"
    INDEX 01 01:07:57
  TRACK 46 AUDIO
    TITLE "8:cjc124_0254"
    INDEX 01 01:07:74
  TRACK 47 AUDIO
    TITLE "0:"
    INDEX 01 01:10:51
  TRACK 48 AUDIO
    TITLE "7:cjc124_0255"
    INDEX 01 01:11:17
  TRACK 49 AUDIO
    TITLE "0:"
    INDEX 01 01:13:08
  TRACK 50 AUDIO
    TITLE "8:cjc124_0256"
    INDEX 01 01:13:40
  TRACK 51 AUDIO
    TITLE "0:"
    INDEX 01 01:16:03
  TRACK 52 AUDIO
    TITLE "7:cjc124_0257"
    INDEX 01 01:16:38
  TRACK 53 AUDIO
    TITLE "0:"
    INDEX 01 01:19:38
  TRACK 54 AUDIO
    TITLE "8:cjc124_0258"
    INDEX 01 01:19:54
  TRACK 55 AUDIO
    TITLE "0:"
    INDEX 01 01:23:24
  TRACK 56 AUDIO
    TITLE "7:cjc124_0259"
    INDEX 01 01:23:63
  TRACK 57 AUDIO
    TITLE "0:"
    INDEX 01 01:26:56
  TRACK 58 AUDIO
    TITLE "8:cjc124_0260"
    INDEX 01 01:27:03
  TRACK 59 AUDIO
    TITLE "0:"
    INDEX 01 01:29:54
  TRACK 60 AUDIO
    TITLE "7:cjc124_0261"
    INDEX 01 01:30:17
  TRACK 61 AUDIO
    TITLE "0:"
    INDEX 01 01:32:51
  TRACK 62 AUDIO
    TITLE "8:cjc124_0262"
    INDEX 01 01:32:74
  TRACK 63 AUDIO
    TITLE "0:"
    INDEX 01 01:35:53
  TRACK 64 AUDIO
    TITLE "7:cjc124_0263"
    INDEX 01 01:36:15
  TRACK 65 AUDIO
    TITLE "0:"
    INDEX 01 01:39:15
  TRACK 66 AUDIO
    TITLE "8:cjc124_0264"
    INDEX 01 01:39:37
  TRACK 67 AUDIO
    TITLE "0:"
    INDEX 01 01:42:39
